<?xml version="1.0" encoding="utf-8"?>
<!-- Generator: Adobe Illustrator 27.5.0, SVG Export Plug-In . SVG Version: 6.00 Build 0)  -->
<svg version="1.1" id="Layer_1" xmlns="http://www.w3.org/2000/svg" xmlns:xlink="http://www.w3.org/1999/xlink" x="0px" y="0px"
	 viewBox="0 0 500 440" style="enable-background:new 0 0 500 440;" xml:space="preserve">
<g>
	<g>
		<defs>
			<rect id="SVGID_1_" y="0" width="500" height="440"/>
		</defs>
		
			<linearGradient id="SVGID_00000080900058867780118670000013519203744129900478_" gradientUnits="userSpaceOnUse" x1="44.5022" y1="4.9881" x2="449.9957" y2="429.255">
			<stop  offset="0.0051" style="stop-color:#92BAEB"/>
			<stop  offset="1" style="stop-color:#FFCDD2"/>
		</linearGradient>
		<use xlink:href="#SVGID_1_"  style="overflow:visible;fill:url(#SVGID_00000080900058867780118670000013519203744129900478_);"/>
		<clipPath id="SVGID_00000116947277658267953700000008509043365775429038_">
			<use xlink:href="#SVGID_1_"  style="overflow:visible;"/>
		</clipPath>
		<g style="opacity:0.1;clip-path:url(#SVGID_00000116947277658267953700000008509043365775429038_);">
			<g>
				<polygon style="fill:#F7F7C8;" points="500,439.255 476.473,452.843 478.433,452.843 500,440.387 				"/>
			</g>
			<g>
				<polygon style="fill:#F7F7C8;" points="500,408.237 422.766,452.843 424.725,452.843 500,409.369 				"/>
			</g>
			<g>
				<polygon style="fill:#F7F7C8;" points="500,377.217 369.056,452.843 371.016,452.843 500,378.349 				"/>
			</g>
			<g>
				<polygon style="fill:#F7F7C8;" points="500,346.198 315.348,452.843 317.308,452.843 500,347.33 				"/>
			</g>
			<g>
				<polygon style="fill:#F7F7C8;" points="500,315.179 261.64,452.843 263.599,452.843 500,316.311 				"/>
			</g>
			<g>
				<polygon style="fill:#F7F7C8;" points="500,284.16 207.932,452.843 209.891,452.843 500,285.292 				"/>
			</g>
			<g>
				<polygon style="fill:#F7F7C8;" points="500,253.141 154.222,452.843 156.182,452.843 500,254.273 				"/>
			</g>
			<g>
				<polygon style="fill:#F7F7C8;" points="500,222.122 100.515,452.843 102.474,452.843 500,223.254 				"/>
			</g>
			<g>
				<polygon style="fill:#F7F7C8;" points="500,191.103 46.806,452.843 48.765,452.843 500,192.235 				"/>
			</g>
			<g>
				<polygon style="fill:#F7F7C8;" points="500,160.084 0,448.857 0,449.988 500,161.216 				"/>
			</g>
			<g>
				<polygon style="fill:#F7F7C8;" points="500,129.065 0,417.837 0,418.969 500,130.197 				"/>
			</g>
			<g>
				<polygon style="fill:#F7F7C8;" points="500,98.045 0,386.819 0,387.95 500,99.177 				"/>
			</g>
			<g>
				<polygon style="fill:#F7F7C8;" points="500,67.026 0,355.799 0,356.931 500,68.159 				"/>
			</g>
			<g>
				<polygon style="fill:#F7F7C8;" points="500,36.007 0,324.78 0,325.912 500,37.14 				"/>
			</g>
			<g>
				<polygon style="fill:#F7F7C8;" points="500,4.988 0,293.761 0,294.893 500,6.12 				"/>
			</g>
			<g>
				<polygon style="fill:#F7F7C8;" points="477.166,-12.843 0,262.742 0,263.874 479.127,-12.843 				"/>
			</g>
			<g>
				<polygon style="fill:#F7F7C8;" points="423.458,-12.843 0,231.723 0,232.855 425.419,-12.843 				"/>
			</g>
			<g>
				<polygon style="fill:#F7F7C8;" points="369.749,-12.843 0,200.704 0,201.836 371.71,-12.843 				"/>
			</g>
			<g>
				<polygon style="fill:#F7F7C8;" points="316.041,-12.843 0,169.685 0,170.817 318.002,-12.843 				"/>
			</g>
			<g>
				<polygon style="fill:#F7F7C8;" points="262.333,-12.843 0,138.666 0,139.798 264.293,-12.843 				"/>
			</g>
			<g>
				<polygon style="fill:#F7F7C8;" points="208.624,-12.843 0,107.647 0,108.779 210.585,-12.843 				"/>
			</g>
			<g>
				<polygon style="fill:#F7F7C8;" points="154.916,-12.843 0,76.628 0,77.76 156.876,-12.843 				"/>
			</g>
			<g>
				<polygon style="fill:#F7F7C8;" points="101.208,-12.843 0,45.609 0,46.741 103.168,-12.843 				"/>
			</g>
			<g>
				<polygon style="fill:#F7F7C8;" points="47.499,-12.843 0,14.589 0,15.721 49.459,-12.843 				"/>
			</g>
			<g>
				<polygon style="fill:#F7F7C8;" points="500,9.917 460.591,-12.843 458.631,-12.843 500,11.049 				"/>
			</g>
			<g>
				<polygon style="fill:#F7F7C8;" points="500,40.937 406.882,-12.843 404.922,-12.843 500,42.069 				"/>
			</g>
			<g>
				<polygon style="fill:#F7F7C8;" points="500,71.955 353.174,-12.843 351.214,-12.843 500,73.087 				"/>
			</g>
			<g>
				<polygon style="fill:#F7F7C8;" points="500,102.975 299.466,-12.843 297.505,-12.843 500,104.107 				"/>
			</g>
			<g>
				<polygon style="fill:#F7F7C8;" points="500,133.994 245.757,-12.843 243.796,-12.843 500,135.126 				"/>
			</g>
			<g>
				<polygon style="fill:#F7F7C8;" points="500,165.013 192.049,-12.843 190.088,-12.843 500,166.145 				"/>
			</g>
			<g>
				<polygon style="fill:#F7F7C8;" points="500,196.032 138.34,-12.843 136.38,-12.843 500,197.164 				"/>
			</g>
			<g>
				<polygon style="fill:#F7F7C8;" points="500,227.051 84.632,-12.843 82.671,-12.843 500,228.183 				"/>
			</g>
			<g>
				<polygon style="fill:#F7F7C8;" points="500,258.07 30.924,-12.843 28.963,-12.843 500,259.202 				"/>
			</g>
			<g>
				<polygon style="fill:#F7F7C8;" points="500,289.089 0,0.316 0,1.448 500,290.22 				"/>
			</g>
			<g>
				<polygon style="fill:#F7F7C8;" points="500,320.108 0,31.335 0,32.467 500,321.24 				"/>
			</g>
			<g>
				<polygon style="fill:#F7F7C8;" points="500,351.127 0,62.354 0,63.486 500,352.259 				"/>
			</g>
			<g>
				<polygon style="fill:#F7F7C8;" points="500,382.147 0,93.373 0,94.506 500,383.278 				"/>
			</g>
			<g>
				<polygon style="fill:#F7F7C8;" points="500,413.165 0,124.392 0,125.525 500,414.297 				"/>
			</g>
			<g>
				<polygon style="fill:#F7F7C8;" points="500,444.185 0,155.412 0,156.544 500,445.316 				"/>
			</g>
			<g>
				<polygon style="fill:#F7F7C8;" points="461.284,452.843 0,186.43 0,187.563 459.325,452.843 				"/>
			</g>
			<g>
				<polygon style="fill:#F7F7C8;" points="407.575,452.843 0,217.45 0,218.582 405.616,452.843 				"/>
			</g>
			<g>
				<polygon style="fill:#F7F7C8;" points="353.867,452.843 0,248.469 0,249.601 351.908,452.843 				"/>
			</g>
			<g>
				<polygon style="fill:#F7F7C8;" points="300.158,452.843 0,279.488 0,280.62 298.198,452.843 				"/>
			</g>
			<g>
				<polygon style="fill:#F7F7C8;" points="246.45,452.843 0,310.507 0,311.639 244.491,452.843 				"/>
			</g>
			<g>
				<polygon style="fill:#F7F7C8;" points="192.741,452.843 0,341.526 0,342.658 190.782,452.843 				"/>
			</g>
			<g>
				<polygon style="fill:#F7F7C8;" points="139.033,452.843 0,372.545 0,373.677 137.074,452.843 				"/>
			</g>
			<g>
				<polygon style="fill:#F7F7C8;" points="85.324,452.843 0,403.564 0,404.696 83.365,452.843 				"/>
			</g>
			<g>
				<polygon style="fill:#F7F7C8;" points="31.617,452.843 0,434.583 0,435.715 29.657,452.843 				"/>
			</g>
		</g>
	</g>
</g>
<g>
	<g>
		<g style="opacity:0.1;">
			<g>
				<polygon points="263.14,210.711 332.981,226.509 368.758,206.336 346.387,161.475 				"/>
			</g>
		</g>
		<g>
			<g>
				<g style="enable-background:new    ;">
					<g>
						<g>
							<polygon style="fill:#FF9C00;" points="352.874,215.513 292.686,180.535 292.472,105.824 352.659,140.802 							"/>
						</g>
					</g>
					<g>
						<g>
							<polygon style="fill:#FFAC33;" points="352.659,140.802 292.472,105.824 308.359,96.647 368.553,131.633 							"/>
						</g>
					</g>
					<g>
						<g>
							<polygon style="fill:#FFBA5F;" points="368.553,131.633 368.758,206.336 352.874,215.513 352.659,140.802 							"/>
						</g>
					</g>
				</g>
			</g>
			<polygon style="fill:#EBEDED;" points="356.749,138.444 356.749,213.274 365.781,208.058 365.781,133.234 			"/>
			<polygon style="fill:#FFFFFF;" points="356.749,138.444 296.082,103.737 304.786,98.711 365.781,133.234 			"/>
			<g>
				<g style="enable-background:new    ;">
					<g>
						<g>
							<polygon style="fill:#0B357C;" points="334.219,225.342 274.03,190.364 273.819,115.653 334.007,150.632 							"/>
						</g>
					</g>
					<g>
						<g>
							<polygon style="fill:#1F5699;" points="334.007,150.632 273.819,115.653 289.704,106.476 349.9,141.462 							"/>
						</g>
					</g>
					<g>
						<g>
							<polygon style="fill:#1A4789;" points="349.9,141.462 350.103,216.165 334.219,225.342 334.007,150.632 							"/>
						</g>
					</g>
				</g>
			</g>
			<polygon style="fill:#EBEDED;" points="338.094,148.274 338.094,223.104 347.125,217.887 347.125,143.064 			"/>
			<polygon style="fill:#FFFFFF;" points="338.094,148.274 277.429,113.566 286.131,108.54 347.125,143.064 			"/>
		</g>
		<g style="opacity:0.1;">
			<path d="M230.73,358.88l-98.769-51.745c-1.773-0.929-4.645-0.933-6.425-0.008l-80.79,42.052c-1.777,0.931-1.785,2.431-0.016,3.36
				l98.771,51.745c1.771,0.925,4.648,0.925,6.425,0.004l80.791-42.054C232.499,361.311,232.499,359.809,230.73,358.88z"/>
		</g>
		<g style="opacity:0.1;">
			<g>
				<path d="M440.895,224.722c10.721,6.184,10.78,16.223,0.128,22.415c-10.661,6.192-27.992,6.192-38.714,0.004
					c-10.718-6.188-10.773-16.231-0.117-22.419C412.846,218.529,430.178,218.529,440.895,224.722z"/>
			</g>
		</g>
		<g>
			<g>
				<g>
					<path style="fill:#D1D1D1;" d="M443.302,227.678c8.129,4.692,8.178,12.302,0.107,16.993c-8.084,4.696-21.221,4.694-29.35,0
						c-8.126-4.69-8.169-12.298-0.089-16.993C422.046,222.986,435.178,222.986,443.302,227.678z"/>
				</g>
			</g>
			<g>
				<polygon style="fill:#D1D1D1;" points="399.429,185.266 408.289,238.424 449.103,238.424 457.94,185.266 				"/>
			</g>
			<g>
				<g>
					<path style="fill:#FFFFFE;" d="M449.301,173.285c11.457,6.616,11.529,17.347,0.145,23.963c-11.395,6.619-29.924,6.615-41.383,0
						c-11.459-6.616-11.519-17.343-0.125-23.963C419.324,166.667,437.84,166.667,449.301,173.285z"/>
				</g>
			</g>
			<g>
				<g>
					<path style="fill:#FFFFFE;" d="M449.301,173.285c11.457,6.616,11.529,17.347,0.145,23.963c-11.395,6.619-29.924,6.615-41.383,0
						c-11.459-6.616-11.519-17.343-0.125-23.963C419.324,166.667,437.84,166.667,449.301,173.285z"/>
				</g>
			</g>
			<g>
				<g>
					<path style="fill:#D1D1D1;" d="M446.265,175.049c9.777,5.639,9.835,14.794,0.126,20.435
						c-9.718,5.652-25.523,5.646-35.297,0.003c-9.775-5.644-9.827-14.791-0.108-20.438
						C420.698,169.405,436.491,169.405,446.265,175.049z"/>
				</g>
			</g>
			<g>
				<path style="fill:#58361A;" d="M411.094,195.487c9.774,5.643,25.579,5.649,35.297-0.003c2.939-1.707,4.967-3.738,6.119-5.893
					c-0.834-2.878-3.155-5.643-6.999-7.862c-9.775-5.647-25.569-5.647-35.281,0c-2.946,1.711-4.978,3.742-6.129,5.903
					C404.938,190.509,407.251,193.27,411.094,195.487z"/>
			</g>
			<g>
				<g>
					<path style="fill:#D1D1D1;" d="M414.204,230.539c0.046-0.018,0.096-0.047,0.142-0.069c0.408-0.177,0.824-0.373,1.249-0.62
						l-2.78-1.616c-0.426,0.244-0.841,0.442-1.251,0.619c-0.117,0.053-0.235,0.102-0.353,0.147c-0.235,0.094-0.47,0.169-0.7,0.238
						c-0.134,0.041-0.269,0.081-0.405,0.116c-0.136,0.035-0.274,0.061-0.408,0.086c-0.163,0.031-0.324,0.059-0.482,0.081
						c-0.105,0.01-0.207,0.024-0.308,0.031c-0.179,0.014-0.358,0.016-0.53,0.014c-0.074,0-0.149,0.002-0.219,0
						c-0.238-0.01-0.469-0.041-0.689-0.077c-0.046-0.012-0.087-0.024-0.132-0.033c-0.186-0.041-0.364-0.09-0.539-0.151
						c-0.052-0.018-0.107-0.035-0.159-0.055c-0.208-0.084-0.414-0.175-0.605-0.285l2.779,1.614c0.014,0.01,0.031,0.02,0.049,0.029
						c0.145,0.081,0.296,0.153,0.45,0.22c0.031,0.012,0.064,0.023,0.099,0.035c0.06,0.024,0.122,0.043,0.186,0.067
						c0.066,0.02,0.127,0.047,0.194,0.063c0.101,0.033,0.202,0.051,0.305,0.075c0.054,0.012,0.102,0.027,0.156,0.037
						c0.023,0.002,0.039,0.008,0.058,0.012c0.181,0.033,0.368,0.051,0.562,0.061c0.019,0.002,0.043,0,0.061,0.002
						c0.075,0.004,0.151,0,0.228,0.002c0.111,0,0.22,0.01,0.335,0.002c0.06-0.002,0.124-0.014,0.186-0.016
						c0.105-0.01,0.215-0.018,0.326-0.033c0.066-0.01,0.132-0.012,0.2-0.02c0.083-0.014,0.169-0.041,0.254-0.055
						c0.14-0.027,0.279-0.055,0.428-0.09c0.059-0.014,0.115-0.022,0.175-0.039c0.073-0.018,0.15-0.055,0.224-0.079
						c0.229-0.067,0.459-0.149,0.698-0.238C414.061,230.588,414.129,230.572,414.204,230.539z"/>
				</g>
				<g>
					<path style="fill:#FFFFFE;" d="M402.974,227.204c0-0.421,0.022-0.851,0.055-1.283c0.009-0.126,0.023-0.253,0.04-0.383
						c0.025-0.273,0.064-0.549,0.105-0.826c0.037-0.275,0.087-0.552,0.142-0.832c0.048-0.252,0.099-0.5,0.158-0.754
						c0.041-0.185,0.088-0.37,0.137-0.554c0.079-0.309,0.166-0.613,0.256-0.923c0.047-0.141,0.087-0.281,0.134-0.422
						c0.14-0.437,0.293-0.872,0.461-1.305c0.027-0.07,0.057-0.141,0.083-0.211c0.152-0.376,0.312-0.758,0.486-1.135
						c0.049-0.115,0.101-0.229,0.154-0.343c0.189-0.404,0.391-0.812,0.598-1.211c0.019-0.038,0.037-0.07,0.057-0.104
						c0.222-0.429,0.464-0.847,0.715-1.264c0.072-0.125,0.148-0.249,0.226-0.371c0.186-0.302,0.376-0.603,0.575-0.898
						c0.094-0.139,0.183-0.278,0.28-0.419c0.212-0.305,0.43-0.606,0.653-0.905c0.086-0.114,0.167-0.23,0.254-0.34
						c0.201-0.266,0.414-0.513,0.625-0.77c0.137-0.166,0.267-0.339,0.413-0.503c0.091-0.105,0.185-0.205,0.28-0.308
						c0.334-0.371,0.673-0.738,1.021-1.092c0.209-0.209,0.422-0.411,0.634-0.611c0.14-0.13,0.275-0.263,0.416-0.39
						c0.249-0.223,0.502-0.436,0.755-0.644c0.134-0.111,0.269-0.227,0.408-0.335c0.282-0.225,0.571-0.435,0.863-0.64
						c0.113-0.081,0.224-0.168,0.334-0.246c0.409-0.277,0.82-0.54,1.238-0.782l-2.779-1.616c-0.42,0.245-0.828,0.505-1.238,0.783
						c-0.112,0.077-0.225,0.163-0.337,0.245c-0.288,0.205-0.579,0.414-0.861,0.639c-0.138,0.11-0.272,0.223-0.41,0.337
						c-0.252,0.21-0.5,0.419-0.748,0.642c-0.147,0.13-0.288,0.263-0.427,0.398c-0.147,0.132-0.291,0.262-0.433,0.404
						c-0.067,0.062-0.124,0.13-0.19,0.197c-0.354,0.356-0.705,0.73-1.043,1.117c-0.068,0.071-0.142,0.142-0.206,0.215
						c-0.017,0.023-0.036,0.047-0.052,0.065c-0.166,0.193-0.33,0.397-0.487,0.598c-0.164,0.195-0.331,0.383-0.487,0.588
						c-0.02,0.025-0.038,0.05-0.058,0.076c-0.1,0.128-0.191,0.262-0.287,0.392c-0.164,0.221-0.335,0.442-0.498,0.669
						c-0.049,0.07-0.092,0.141-0.14,0.212c-0.088,0.124-0.17,0.254-0.258,0.38c-0.105,0.164-0.22,0.321-0.324,0.486
						c-0.095,0.149-0.182,0.303-0.274,0.452c-0.076,0.12-0.148,0.234-0.217,0.355c-0.048,0.078-0.097,0.155-0.144,0.231
						c-0.197,0.34-0.388,0.68-0.569,1.023c-0.006,0.008-0.009,0.017-0.011,0.025c-0.005,0.011-0.01,0.019-0.016,0.029
						c-0.167,0.317-0.33,0.635-0.484,0.957c-0.051,0.103-0.093,0.202-0.139,0.303c-0.057,0.12-0.112,0.243-0.17,0.367
						c-0.052,0.115-0.107,0.23-0.158,0.35c-0.112,0.252-0.213,0.51-0.315,0.766c-0.03,0.073-0.06,0.15-0.088,0.221
						c-0.006,0.017-0.018,0.033-0.02,0.052c-0.141,0.358-0.27,0.719-0.39,1.083c-0.019,0.055-0.034,0.114-0.054,0.174
						c-0.044,0.135-0.083,0.267-0.123,0.398c-0.058,0.194-0.122,0.389-0.175,0.58c-0.035,0.123-0.059,0.242-0.092,0.364
						c-0.048,0.185-0.095,0.369-0.135,0.556c-0.027,0.123-0.064,0.244-0.09,0.363c-0.027,0.127-0.041,0.253-0.063,0.378
						c-0.057,0.281-0.105,0.567-0.147,0.85c-0.015,0.111-0.044,0.226-0.058,0.341c-0.021,0.157-0.03,0.31-0.046,0.467
						c-0.014,0.136-0.029,0.264-0.041,0.398c-0.033,0.429-0.053,0.856-0.053,1.277c0.011,3.548,1.291,6.046,3.379,7.259l2.778,1.614
						C404.265,233.249,402.984,230.753,402.974,227.204z"/>
				</g>
				<g>
					<g>
						<path style="fill:#A7A7A7;" d="M415.527,206.4l0.011,3.618c-5.097,2.941-9.216,9.764-9.197,15.246
							c0.017,5.478,4.158,7.528,9.254,4.587l0.007,3.617c-6.948,4.016-12.605,1.212-12.628-6.263
							C402.952,219.73,408.575,210.415,415.527,206.4z"/>
					</g>
				</g>
			</g>
		</g>
		<g style="opacity:0.1;">
			<g>
				<polygon points="185.816,328.914 245.86,356.091 409.498,264.313 353.793,231.933 				"/>
			</g>
		</g>
		<g>
			<g>
				<g style="enable-background:new    ;">
					<g>
						<g>
							<polygon style="fill:#C8D2DB;" points="196.67,318.476 196.699,327.511 248.853,357.831 248.825,348.79 							"/>
						</g>
					</g>
					<g>
						<g>
							<polygon style="fill:#C3C5C5;" points="248.825,348.79 248.853,357.831 406.116,267.029 406.088,258.003 							"/>
						</g>
					</g>
					<g>
						<g>
							<polygon style="fill:#E6E7EC;" points="196.67,318.476 248.825,348.79 406.088,258.003 353.927,227.684 							"/>
						</g>
					</g>
				</g>
			</g>
			<g>
				<g>
					<g>
						<polygon style="fill:#A8AAAA;" points="215.722,317.739 220.511,320.522 226.523,317.044 221.734,314.269 						"/>
					</g>
				</g>
				<g>
					<g>
						<polygon style="fill:#A8AAAA;" points="224.545,312.692 229.336,315.467 235.349,311.989 230.558,309.216 						"/>
					</g>
				</g>
				<g>
					<g>
						<polygon style="fill:#A8AAAA;" points="234.002,307.545 238.777,310.338 244.81,306.848 240.035,304.071 						"/>
					</g>
				</g>
				<g>
					<g>
						<polygon style="fill:#A8AAAA;" points="242.832,302.496 247.615,305.273 253.646,301.799 248.853,299.014 						"/>
					</g>
				</g>
				<g>
					<g>
						<polygon style="fill:#A8AAAA;" points="251.469,297.543 256.248,300.328 262.271,296.848 257.484,294.075 						"/>
					</g>
				</g>
				<g>
					<g>
						<polygon style="fill:#A8AAAA;" points="260.296,292.496 265.083,295.271 271.114,291.797 266.329,289.024 						"/>
					</g>
				</g>
				<g>
					<g>
						<polygon style="fill:#A8AAAA;" points="269.753,287.351 274.546,290.126 280.573,286.654 275.787,283.873 						"/>
					</g>
				</g>
				<g>
					<g>
						<polygon style="fill:#A8AAAA;" points="278.579,282.3 283.37,285.085 289.395,281.603 284.603,278.826 						"/>
					</g>
				</g>
			</g>
			<g>
				<g>
					<g>
						<polygon style="fill:#A8AAAA;" points="286.857,277.897 291.651,280.68 297.658,277.194 292.886,274.427 						"/>
					</g>
				</g>
				<g>
					<g>
						<polygon style="fill:#A8AAAA;" points="295.682,272.85 300.468,275.625 306.484,272.153 301.692,269.374 						"/>
					</g>
				</g>
				<g>
					<g>
						<polygon style="fill:#A8AAAA;" points="305.154,267.699 309.926,270.478 315.962,267.004 311.171,264.225 						"/>
					</g>
				</g>
				<g>
					<g>
						<polygon style="fill:#A8AAAA;" points="313.967,262.652 318.76,265.425 324.781,261.953 319.99,259.172 						"/>
					</g>
				</g>
				<g>
					<g>
						<polygon style="fill:#A8AAAA;" points="322.607,257.711 327.397,260.484 333.409,257.006 328.619,254.235 						"/>
					</g>
				</g>
				<g>
					<g>
						<polygon style="fill:#A8AAAA;" points="331.433,252.654 336.221,255.429 342.23,251.955 337.464,249.176 						"/>
					</g>
				</g>
				<g>
					<g>
						<polygon style="fill:#A8AAAA;" points="340.89,247.514 345.68,250.285 351.693,246.817 346.903,244.033 						"/>
					</g>
				</g>
				<g>
					<g>
						<polygon style="fill:#A8AAAA;" points="349.732,242.456 354.506,245.246 360.518,241.76 355.739,238.98 						"/>
					</g>
				</g>
			</g>
			<g>
				<g>
					<g>
						<polygon style="fill:#A8AAAA;" points="225.209,323.081 229.984,325.856 236.017,322.374 231.225,319.595 						"/>
					</g>
				</g>
				<g>
					<g>
						<polygon style="fill:#A8AAAA;" points="234.031,318.028 238.806,320.799 244.851,317.329 240.045,314.544 						"/>
					</g>
				</g>
				<g>
					<g>
						<polygon style="fill:#A8AAAA;" points="243.493,312.879 248.281,315.656 254.294,312.178 249.521,309.399 						"/>
					</g>
				</g>
				<g>
					<g>
						<polygon style="fill:#A8AAAA;" points="252.319,307.826 257.108,310.601 263.14,307.129 258.331,304.35 						"/>
					</g>
				</g>
				<g>
					<g>
						<polygon style="fill:#A8AAAA;" points="260.961,302.873 265.733,305.66 271.768,302.174 266.978,299.403 						"/>
					</g>
				</g>
				<g>
					<g>
						<polygon style="fill:#A8AAAA;" points="269.782,297.832 274.57,300.609 280.584,297.129 275.814,294.348 						"/>
					</g>
				</g>
				<g>
					<g>
						<polygon style="fill:#A8AAAA;" points="279.238,292.679 284.032,295.463 290.042,291.987 285.256,289.197 						"/>
					</g>
				</g>
				<g>
					<g>
						<polygon style="fill:#A8AAAA;" points="288.083,287.632 292.856,290.408 298.87,286.934 294.098,284.154 						"/>
					</g>
				</g>
			</g>
			<g>
				<g>
					<g>
						<polygon style="fill:#A8AAAA;" points="296.35,283.227 301.119,286 307.153,282.526 302.373,279.749 						"/>
					</g>
				</g>
				<g>
					<g>
						<polygon style="fill:#A8AAAA;" points="305.168,278.172 309.95,280.947 315.973,277.483 311.199,274.7 						"/>
					</g>
				</g>
				<g>
					<g>
						<polygon style="fill:#A8AAAA;" points="314.627,273.03 319.418,275.817 325.432,272.327 320.656,269.549 						"/>
					</g>
				</g>
				<g>
					<g>
						<polygon style="fill:#A8AAAA;" points="323.451,267.978 328.243,270.76 334.271,267.284 329.482,264.504 						"/>
					</g>
				</g>
				<g>
					<g>
						<polygon style="fill:#A8AAAA;" points="332.074,263.033 336.89,265.804 342.91,262.337 338.121,259.56 						"/>
					</g>
				</g>
				<g>
					<g>
						<polygon style="fill:#A8AAAA;" points="340.916,257.98 345.697,260.753 351.72,257.288 346.95,254.502 						"/>
					</g>
				</g>
				<g>
					<g>
						<polygon style="fill:#A8AAAA;" points="350.376,252.836 355.167,255.609 361.195,252.147 356.391,249.362 						"/>
					</g>
				</g>
				<g>
					<g>
						<polygon style="fill:#A8AAAA;" points="359.206,247.793 363.994,250.566 370.01,247.088 365.214,244.311 						"/>
					</g>
				</g>
			</g>
			<g>
				<g>
					<g>
						<polygon style="fill:#A8AAAA;" points="234.095,328.727 238.868,331.51 244.902,328.034 240.108,325.255 						"/>
					</g>
				</g>
				<g>
					<g>
						<polygon style="fill:#A8AAAA;" points="242.917,323.672 247.691,326.449 253.723,322.977 248.93,320.19 						"/>
					</g>
				</g>
				<g>
					<g>
						<polygon style="fill:#A8AAAA;" points="252.378,318.535 257.155,321.31 263.175,317.835 258.391,315.061 						"/>
					</g>
				</g>
				<g>
					<g>
						<polygon style="fill:#A8AAAA;" points="261.198,313.476 265.974,316.262 272.002,312.779 267.216,310.004 						"/>
					</g>
				</g>
				<g>
					<g>
						<polygon style="fill:#A8AAAA;" points="269.848,308.527 274.619,311.314 280.649,307.839 275.862,305.049 						"/>
					</g>
				</g>
				<g>
					<g>
						<polygon style="fill:#A8AAAA;" points="278.672,303.484 283.438,306.261 289.471,302.783 284.68,299.994 						"/>
					</g>
				</g>
				<g>
					<g>
						<polygon style="fill:#A8AAAA;" points="288.124,298.34 292.904,301.115 298.929,297.641 294.138,294.866 						"/>
					</g>
				</g>
				<g>
					<g>
						<polygon style="fill:#A8AAAA;" points="296.951,293.282 301.724,296.072 307.753,292.586 302.984,289.81 						"/>
					</g>
				</g>
			</g>
			<g>
				<g>
					<g>
						<polygon style="fill:#A8AAAA;" points="305.23,288.881 310.007,291.669 316.019,288.182 311.248,285.403 						"/>
					</g>
				</g>
				<g>
					<g>
						<polygon style="fill:#A8AAAA;" points="314.051,283.841 318.831,286.612 324.857,283.138 320.067,280.35 						"/>
					</g>
				</g>
				<g>
					<g>
						<polygon style="fill:#A8AAAA;" points="323.53,278.68 328.288,281.463 334.313,277.993 329.538,275.214 						"/>
					</g>
				</g>
				<g>
					<g>
						<polygon style="fill:#A8AAAA;" points="332.336,273.639 337.112,276.414 343.138,272.936 338.352,270.161 						"/>
					</g>
				</g>
				<g>
					<g>
						<polygon style="fill:#A8AAAA;" points="340.984,268.69 345.768,271.473 351.789,267.984 346.98,265.218 						"/>
					</g>
				</g>
				<g>
					<g>
						<polygon style="fill:#A8AAAA;" points="349.802,263.638 354.579,266.42 360.607,262.946 355.813,260.167 						"/>
					</g>
				</g>
				<g>
					<g>
						<polygon style="fill:#A8AAAA;" points="359.26,258.498 364.04,261.275 370.064,257.797 365.28,255.022 						"/>
					</g>
				</g>
				<g>
					<g>
						<polygon style="fill:#A8AAAA;" points="368.09,253.443 372.861,256.224 378.889,252.742 374.1,249.967 						"/>
					</g>
				</g>
			</g>
			<g>
				<g>
					<polygon style="fill:#A8AAAA;" points="242.222,334.061 247.009,336.845 253.042,333.352 248.251,330.589 					"/>
				</g>
			</g>
			<g>
				<g>
					<polygon style="fill:#A8AAAA;" points="251.062,329.002 255.843,331.789 261.873,328.313 257.076,325.532 					"/>
				</g>
			</g>
			<g>
				<g>
					<polygon style="fill:#A8AAAA;" points="260.52,323.872 265.297,326.645 271.325,323.163 266.538,320.385 					"/>
				</g>
			</g>
			<g>
				<g>
					<polygon style="fill:#A8AAAA;" points="269.848,318.476 275.162,321.31 368.755,268.266 363.96,265.488 					"/>
				</g>
			</g>
			<g>
				<g>
					<polygon style="fill:#A8AAAA;" points="367.407,263.83 372.181,266.611 378.212,263.135 373.421,260.34 					"/>
				</g>
			</g>
			<g>
				<g>
					<polygon style="fill:#A8AAAA;" points="376.226,258.779 381.006,261.55 387.028,258.078 382.264,255.297 					"/>
				</g>
			</g>
		</g>
		<g>
			<g>
				<g>
					<path style="fill:#EFEFEF;" d="M60.162,348.407c-1.6,0.927-1.607,2.429-0.013,3.358l89.045,51.745
						c1.598,0.925,4.19,0.925,5.792,0.004l72.836-42.052c1.607-0.925,1.609-2.427,0.012-3.354l-89.044-51.747
						c-1.597-0.931-4.186-0.933-5.794-0.006L60.162,348.407z"/>
				</g>
			</g>
			<g>
				<g style="enable-background:new    ;">
					<g>
						<g>
							<path style="fill:#D09A74;" d="M146.346,330.932l0.02-0.01l-0.201-0.12C146.237,330.842,146.295,330.885,146.346,330.932z"/>
						</g>
					</g>
					<g>
						<g>
							<path style="fill:#F1B287;" d="M141.402,328.034l-3.671,2.121l2.946,1.714l0.565,0.33l1.25,0.725
								c-0.728-0.424-0.5-1.241,0.515-1.828c1.015-0.585,2.429-0.719,3.158-0.295l-1.254-0.727l-0.505-0.293L141.402,328.034z"/>
						</g>
					</g>
					<g>
						<g>
							<path style="fill:#F1B287;" d="M143.007,331.097c-1.015,0.587-1.243,1.404-0.515,1.828c0.067,0.037,0.143,0.073,0.223,0.102
								c0.768,0.293,2.013,0.132,2.928-0.397c0.917-0.528,1.2-1.251,0.703-1.697c-0.051-0.047-0.109-0.09-0.181-0.13
								C145.437,330.377,144.022,330.512,143.007,331.097z"/>
						</g>
					</g>
					<g>
						<g>
							<path style="fill:#1D2932;" d="M144.912,330.074l1.455,0.848c0.476,0.456,0.193,1.18-0.723,1.707
								c-0.915,0.53-2.16,0.691-2.928,0.397l-0.223-0.102l-1.25-0.725c-3.75,2.979-4.147,6.934-1.195,10.11l22.356-12.904
								C156.915,327.68,150.073,327.9,144.912,330.074z"/>
						</g>
					</g>
					<g>
						<g>
							<path style="fill:#FFFFFF;" d="M169.855,329.212l-29.575,17.074l-29.782-17.309l29.569-17.076L169.855,329.212z
								 M162.404,329.406c-5.489-1.726-12.331-1.506-17.492,0.668l-0.505-0.293c0.925-1.671-0.214-3.902-3.139-5.603
								c-3.775-2.19-9.097-2.669-11.883-1.06c-2.794,1.61-1.987,4.697,1.79,6.891c2.871,1.667,6.639,2.341,9.503,1.86l0.565,0.33
								c-3.75,2.979-4.147,6.934-1.195,10.11L162.404,329.406L162.404,329.406z"/>
						</g>
					</g>
					<g>
						<g>
							<path style="fill:#F1B287;" d="M129.384,323.118c-2.794,1.61-1.987,4.697,1.79,6.891c2.871,1.667,6.639,2.341,9.503,1.86
								l-2.946-1.714l3.671-2.121l3.004,1.746c0.925-1.671-0.214-3.902-3.139-5.603C137.493,321.987,132.17,321.508,129.384,323.118
								z"/>
						</g>
					</g>
					<g>
						<g>
							<path style="fill:#D09A74;" d="M142.692,333.043l0.023-0.016c-0.081-0.029-0.156-0.065-0.223-0.102L142.692,333.043z"/>
						</g>
					</g>
					<g>
						<g>
							<polygon style="fill:#6E7C66;" points="78.231,353.941 80.462,355.233 109.628,338.397 107.399,337.103 							"/>
						</g>
					</g>
					<g>
						<g>
							<polygon style="fill:#6E7C66;" points="83.707,357.12 85.932,358.416 119.989,338.754 117.768,337.458 							"/>
						</g>
					</g>
					<g>
						<g>
							<polygon style="fill:#6E7C66;" points="89.176,360.298 91.405,361.594 125.464,341.93 123.237,340.634 							"/>
						</g>
					</g>
					<g>
						<g>
							<polygon style="fill:#6E7C66;" points="94.648,363.481 96.874,364.773 126.039,347.939 123.813,346.643 							"/>
						</g>
					</g>
					<g>
						<g>
							<polygon style="fill:#6E7C66;" points="100.12,366.658 102.346,367.953 136.404,348.291 134.18,346.995 							"/>
						</g>
					</g>
					<g>
						<g>
							<polygon style="fill:#6E7C66;" points="118.354,377.259 120.586,378.552 188.098,339.577 185.862,338.277 							"/>
						</g>
					</g>
					<g>
						<g>
							<polygon style="fill:#6E7C66;" points="123.825,380.435 126.056,381.735 183.864,348.358 181.632,347.061 							"/>
						</g>
					</g>
				</g>
				<g>
					<g>
						<polygon style="fill:#6E7C66;" points="72.762,350.761 74.991,352.055 109.051,332.391 106.826,331.097 						"/>
					</g>
				</g>
				<g>
					<g>
						<polygon style="fill:#6E7C66;" points="129.298,383.616 131.529,384.914 199.036,345.938 196.803,344.638 						"/>
					</g>
				</g>
			</g>
		</g>
		<g>
			<g style="opacity:0.1;">
				<g>
					<path d="M98.558,281.139c11.303,6.518,11.337,17.085,0.147,23.584c-11.204,6.52-29.387,6.52-40.69-0.016
						c-11.279-6.504-11.33-17.05-0.136-23.55C69.07,274.653,87.296,274.639,98.558,281.139z"/>
				</g>
			</g>
			<g>
				<g>
					<g>
						<path style="fill:#FFAC33;" d="M99.198,286.477c8.585,4.955,8.593,12.967,0.101,17.904
							c-8.498,4.941-22.305,4.941-30.883-0.012c-8.551-4.943-8.596-12.936-0.087-17.879
							C76.822,281.554,90.654,281.534,99.198,286.477z"/>
					</g>
				</g>
				<g>
					<polygon style="fill:#FFAC33;" points="55.046,260.951 61.975,296.614 105.581,296.614 112.585,260.04 					"/>
				</g>
				<g>
					<g>
						<path style="fill:#FFBA5F;" d="M104.079,248.253c11.303,6.524,11.338,17.087,0.147,23.59
							c-11.203,6.502-29.386,6.502-40.69-0.02c-11.279-6.516-11.33-17.046-0.136-23.548
							C74.591,241.774,92.817,241.76,104.079,248.253z"/>
					</g>
				</g>
				<g>
					<g>
						<path style="fill:#26AA4B;" d="M97.827,251.43c8.267,4.77,8.274,12.47,0.084,17.242c-8.173,4.751-21.466,4.751-29.727-0.02
							c-8.241-4.768-8.285-12.451-0.112-17.221C76.265,246.695,89.592,246.682,97.827,251.43z"/>
					</g>
				</g>
			</g>
			<g>
				<path style="fill:#26AA4B;" d="M62.337,262.239c0,0-21.22-26.828-0.362-75.08c0,0,18.32,23.105,7.82,82.332
					C69.796,269.49,65.715,267.966,62.337,262.239z"/>
			</g>
			<g>
				<path style="fill:#1A8E35;" d="M62.225,187.503c0.403,18.577,1.449,50.838,4.003,79.587c1.991,1.803,3.568,2.4,3.568,2.4
					C79.573,214.262,64.344,190.47,62.225,187.503z"/>
			</g>
			<g>
				<path style="fill:#26AA4B;" d="M72.781,258.96c0,0-17.007-29.689,10.799-74.306c0,0,14.694,25.575-4.511,82.591
					C79.068,267.245,75.269,265.124,72.781,258.96z"/>
			</g>
			<g>
				<path style="fill:#1A8E35;" d="M83.58,184.654c-2.358,18.439-7.6,50.449-9.332,79.266c1.708,2.09,3.173,2.916,3.173,2.916
					C98.279,217.042,85.227,187.895,83.58,184.654z"/>
			</g>
			<g>
				<g>
					<path style="fill:#26AA4B;" d="M73.854,270.676c0,0-25.446-8.987-31.793-49.966c0,0,21.939,7.716,39.831,51.682
						C81.891,272.392,78.521,273.078,73.854,270.676z"/>
				</g>
				<g>
					<path style="fill:#1A8E35;" d="M42.369,220.829c8.079,12.251,22.315,33.347,36.125,51.456c2.093,0.365,3.397,0.106,3.397,0.106
						C65.217,231.413,45.038,221.93,42.369,220.829z"/>
				</g>
			</g>
			<g>
				<g>
					<path style="fill:#26AA4B;" d="M85.149,266.715c0,0-13.62-15.559-2.471-45.32c0,0,11.752,13.396,7.206,49.47
						C89.884,270.866,87.361,270.079,85.149,266.715z"/>
				</g>
				<g>
					<path style="fill:#1A8E35;" d="M82.841,221.587c0.8,11.215,2.394,30.668,4.794,47.94c1.271,1.031,2.249,1.339,2.249,1.339
						C94.121,237.245,84.205,223.318,82.841,221.587z"/>
				</g>
			</g>
			<g>
				<g>
					<path style="fill:#26AA4B;" d="M91.196,256.733c0,0-13.02-23.639,9.46-58.478c0,0,11.26,20.377-4.609,65.079
						C96.047,263.335,93.084,261.621,91.196,256.733z"/>
				</g>
				<g>
					<path style="fill:#1A8E35;" d="M100.818,198.567c-2.099,14.512-5.506,39.743-7.227,62.437c1.318,1.663,2.456,2.331,2.456,2.331
						C110.844,221.64,102.08,201.158,100.818,198.567z"/>
				</g>
			</g>
			<g>
				<g>
					<path style="fill:#26AA4B;" d="M94.541,261.142c0,0-3.087-19.921,21.586-38.599c0,0,2.71,17.154-19.871,44.479
						C96.256,267.023,94.617,265.048,94.541,261.142z"/>
				</g>
				<g>
					<path style="fill:#1A8E35;" d="M116.171,222.784c-5.206,9.642-14.016,26.488-21.038,41.973c0.49,1.512,1.123,2.266,1.123,2.266
						C117.295,241.554,116.387,224.93,116.171,222.784z"/>
				</g>
			</g>
		</g>
		<g>
			<g style="opacity:0.1;">
				<g>
					<polygon points="144.466,271.489 208.634,284.491 292.661,235.987 236.378,218.427 					"/>
				</g>
			</g>
			<g style="enable-background:new    ;">
				<g>
					<g>
						<polygon style="fill:#A9B5C4;" points="173.161,256.605 173.178,263.897 208.634,284.491 208.609,277.204 						"/>
					</g>
				</g>
				<g>
					<g>
						<polygon style="fill:#C3C5C5;" points="208.609,277.204 208.634,284.491 292.661,235.987 292.634,228.707 						"/>
					</g>
				</g>
				<g>
					<g>
						<polygon style="fill:#E6E7EC;" points="173.161,256.605 208.609,277.204 292.634,228.707 257.171,208.1 						"/>
					</g>
				</g>
				<g>
					<g style="opacity:0.5;">
						<polygon style="fill:#939599;" points="173.161,256.605 292.634,228.707 292.634,228.707 257.171,208.1 						"/>
					</g>
				</g>
			</g>
			<g style="enable-background:new    ;">
				<g>
					<g>
						<polygon style="fill:#A9B5C4;" points="205.913,263.647 199.61,259.991 199.416,194.431 205.72,198.09 						"/>
					</g>
				</g>
				<g>
					<g>
						<polygon style="fill:#C0C5D1;" points="205.72,198.09 199.416,194.431 256.499,161.475 262.794,165.134 						"/>
					</g>
				</g>
				<g>
					<g>
						<polygon style="fill:#D5DFE6;" points="262.794,165.134 262.987,230.694 205.913,263.647 205.72,198.09 						"/>
					</g>
				</g>
			</g>
			<g>
				<g>
					<polygon style="fill:#C8D2DB;" points="150.219,275.9 143.797,274.107 116.275,138.367 122.697,140.163 					"/>
				</g>
				<g>
					<polygon style="fill:#E1EAEF;" points="122.697,140.163 116.275,138.367 295.301,35.02 301.706,36.807 					"/>
				</g>
				<g>
					<polygon style="fill:#D5DFE6;" points="301.706,36.807 329.248,172.546 150.219,275.9 122.697,140.163 					"/>
				</g>
				<g>
					<g>
						<polygon style="fill:#53AACF;" points="296.926,47.624 321.368,169.9 155.61,265.788 130.195,141.949 						"/>
					</g>
				</g>
				<g>
					<polygon style="fill:#F2F2F2;" points="275.623,87.584 291.551,167.184 183.62,229.637 167.085,148.993 					"/>
				</g>
				<g>
					<polygon style="fill:#939599;" points="275.732,113.998 276.412,117.557 215.959,154.078 215.306,150.63 					"/>
				</g>
				<g>
					<polygon style="fill:#939599;" points="274.241,104.479 274.944,108.033 214.486,144.553 213.834,141.096 					"/>
				</g>
				<g>
					<polygon style="fill:#939599;" points="280.289,135.496 280.964,139.042 220.515,175.567 219.864,172.111 					"/>
				</g>
				<g>
					<polygon style="fill:#939599;" points="278.792,125.966 279.503,129.517 219.038,166.044 218.387,162.585 					"/>
				</g>
				<g>
					<polygon style="fill:#F5F3F2;" points="146.312,140.163 147.672,146.904 138.508,152.203 137.116,145.371 					"/>
				</g>
				<g>
					<polygon style="fill:#F5F3F2;" points="150.458,157.588 151.809,164.34 142.661,169.632 141.242,162.796 					"/>
				</g>
				<g>
					<polygon style="fill:#F5F3F2;" points="154.15,176.372 155.5,183.116 146.346,188.405 144.951,181.581 					"/>
				</g>
				<g>
					<polygon style="fill:#F5F3F2;" points="157.185,193.476 158.524,200.221 149.383,205.514 147.974,198.684 					"/>
				</g>
				<g>
					<g>
						<g>
							<path style="fill:#E6E7E9;" d="M176.514,152.368l28.255-14.885l7.071,36.375l-28.265,14.885L176.514,152.368z"/>
						</g>
					</g>
				</g>
			</g>
			<g>
				<g style="enable-background:new    ;">
					<g>
						<g>
							<path style="fill:#CF9974;" d="M197.683,168.673l-0.041,0.026c0.005-0.158-0.005-0.315-0.03-0.467L197.683,168.673z"/>
						</g>
					</g>
					<g>
						<g>
							<path style="fill:#F1B287;" d="M194.916,167.231c1.274-0.734,2.487-0.295,2.695,1.002c0.025,0.152,0.035,0.309,0.03,0.467
								c-0.034,1.203-0.848,2.561-1.973,3.213c-1.136,0.654-2.204,0.385-2.583-0.581c-0.05-0.127-0.088-0.266-0.114-0.422
								C192.764,169.614,193.628,167.976,194.916,167.231z"/>
						</g>
					</g>
					<g>
						<g>
							<path style="fill:#CF9974;" d="M193.085,171.331l-0.042,0.022l-0.072-0.445C192.997,171.065,193.035,171.204,193.085,171.331
								z"/>
						</g>
					</g>
					<g>
						<g>
							<path style="fill:#F1B287;" d="M191.671,147.024c3.34-1.928,6.769,0.964,7.657,6.481c0.664,4.153-0.306,8.606-2.256,11.374
								l-0.634-3.968l-4.641,2.681l0.635,3.971c-2.441-0.229-4.56-2.906-5.227-7.058
								C186.32,154.989,188.319,148.961,191.671,147.024z"/>
						</g>
					</g>
					<g>
						<g>
							<path style="fill:#F1B287;" d="M191.798,163.592l4.641-2.681l0.634,3.968l0.164,1.024l0.374,2.329
								c-0.208-1.297-1.421-1.735-2.695-1.002c-1.288,0.745-2.152,2.383-1.945,3.678l-0.335-2.082l-0.203-1.264L191.798,163.592z"/>
						</g>
					</g>
					<g>
						<g>
							<path style="fill:#19232B;" d="M197.237,165.903c5.708-2.241,10.98,0.623,12.949,6.99l-25.227,14.564
								c-0.22-6.889,2.856-14.285,7.677-18.631l0.407,2.527c0.421,0.944,1.49,1.213,2.625,0.559
								c1.125-0.652,1.939-2.011,1.973-3.213l-0.03-0.467L197.237,165.903z"/>
						</g>
					</g>
				</g>
			</g>
			<polygon style="opacity:0.2;fill:#FFFFFF;" points="219.864,91.221 176.327,253.095 215.722,230.352 256.87,70.285 			"/>
			<polygon style="opacity:0.2;fill:#FFFFFF;" points="184.948,110.974 148.662,231.933 138.703,183.402 155.5,128.407 			"/>
			<polygon style="opacity:0.2;fill:#FFFFFF;" points="301.706,70.285 263.175,203.563 297.658,183.616 313.967,128.554 			"/>
		</g>
		<g style="opacity:0.1;">
			<polygon points="401.296,300.836 401.301,300.837 383.929,303.672 310.699,343.913 307.763,347.806 310.663,354.891 
				316.503,358.076 389.736,317.832 405.734,300.112 			"/>
		</g>
		<g>
			<g>
				<polygon style="fill:#AAC6C3;" points="408.818,298.863 393.264,317.083 396.117,313.077 				"/>
			</g>
			<g>
				<polygon style="fill:#DBDCDD;" points="408.818,298.863 396.117,313.077 387.619,302.522 				"/>
			</g>
			<g>
				<g>
					<polygon style="fill:#AAC6C3;" points="324.923,354.453 396.117,313.077 393.264,317.083 322.069,358.457 					"/>
				</g>
			</g>
			<g>
				<g>
					<polygon style="fill:#E6E6E6;" points="322.102,347.171 393.296,305.799 396.117,313.077 324.923,354.453 					"/>
				</g>
			</g>
			<g>
				<g>
					<polygon style="fill:#FFFFFF;" points="316.429,343.894 387.619,302.522 393.296,305.799 322.102,347.171 					"/>
				</g>
			</g>
			<g>
				<g>
					<polygon style="fill:#E6E6E6;" points="322.102,347.171 324.923,354.453 322.069,358.457 316.396,355.178 313.574,347.9 
						316.429,343.894 					"/>
				</g>
			</g>
			<g>
				<g>
					<polygon style="fill:#565858;" points="320.51,349.907 321.753,353.122 320.495,354.889 317.99,353.444 316.744,350.227 
						318.002,348.46 					"/>
				</g>
			</g>
			<g>
				<polygon style="fill:#F4F4F4;" points="408.818,298.863 393.296,305.799 387.619,302.522 				"/>
			</g>
			<g>
				<polygon style="fill:#5A5C5D;" points="405.607,300.296 408.818,298.863 404.503,299.605 				"/>
			</g>
			<g>
				<polygon style="fill:#6D6F70;" points="405.607,300.296 406.263,301.856 408.818,298.863 				"/>
			</g>
		</g>
	</g>
	<g>
		<g style="opacity:0.2;">
			<g>
				<path style="fill:#33ADE3;" d="M364.173,127.144c0,18.289-28.912,60.873-47.06,60.873c-18.141,0-32.091-5.564-32.091-23.853
					c0-18.289,28.15-70.139,46.295-70.139C349.462,94.025,364.173,108.853,364.173,127.144z"/>
			</g>
		</g>
		<g>
			<g>
				<polygon style="fill:#B54C04;" points="377.6,114.867 371.184,111.137 370.975,90.441 377.39,94.173 				"/>
			</g>
		</g>
		<g>
			<path style="fill:#E27124;" d="M426.703,65.363c0.206-0.095,0.414-0.174,0.615-0.253c0.303-0.118,0.601-0.218,0.895-0.308
				c0.147-0.045,0.293-0.093,0.434-0.129c0.17-0.045,0.338-0.075,0.503-0.11c0.192-0.036,0.385-0.075,0.572-0.102
				c0.116-0.013,0.231-0.023,0.345-0.033c0.213-0.019,0.424-0.034,0.631-0.034c0.091,0,0.18,0,0.269,0.004
				c0.28,0.014,0.559,0.034,0.822,0.078c0.01,0.004,0.024,0.008,0.036,0.011c0.256,0.045,0.494,0.115,0.727,0.196
				c0.061,0.014,0.12,0.038,0.174,0.059c0.245,0.09,0.48,0.195,0.699,0.32c-2.138-1.241-4.277-2.485-6.419-3.73
				c-0.017-0.009-0.036-0.02-0.051-0.029c-0.158-0.088-0.319-0.168-0.486-0.236c-0.054-0.02-0.107-0.038-0.163-0.058
				c-0.051-0.02-0.111-0.039-0.17-0.059c-0.068-0.025-0.132-0.053-0.201-0.072c-0.172-0.05-0.351-0.089-0.532-0.122
				c-0.008-0.002-0.019-0.007-0.038-0.009c-0.004,0-0.004-0.002-0.01-0.003c-0.212-0.036-0.427-0.061-0.648-0.076
				c-0.051-0.001-0.108,0-0.162,0c-0.09-0.003-0.177-0.001-0.269-0.001c-0.1,0-0.2-0.009-0.301-0.002
				c-0.107,0.003-0.222,0.021-0.326,0.032c-0.116,0.009-0.233,0.019-0.347,0.036c-0.061,0.005-0.118,0.005-0.178,0.014
				c-0.128,0.02-0.263,0.06-0.395,0.086c-0.164,0.03-0.332,0.064-0.5,0.106c-0.051,0.014-0.097,0.018-0.146,0.034
				c-0.088,0.023-0.186,0.064-0.274,0.093c-0.303,0.088-0.605,0.192-0.912,0.311c-0.079,0.033-0.152,0.05-0.234,0.082
				c-0.123,0.048-0.253,0.114-0.378,0.171c-0.106,0.048-0.21,0.093-0.317,0.147c-0.358,0.17-0.718,0.353-1.085,0.566l-47.908,28.096
				l6.415,3.732l47.91-28.099c0.366-0.209,0.733-0.395,1.087-0.566C426.492,65.456,426.599,65.413,426.703,65.363z"/>
		</g>
		<g>
			<g>
				<path style="fill:#D25400;" d="M425.3,66.074c5.862-3.385,10.572-1.51,10.63,4.173c0.051,5.726-4.615,13.122-10.428,16.527
					L377.6,114.867l-0.21-20.694L425.3,66.074z"/>
			</g>
		</g>
		<g>
			<g style="enable-background:new    ;">
				<g>
					<g>
						<polygon style="fill:#452617;" points="365.641,118.866 359.223,115.134 359.068,101.065 365.484,104.795 						"/>
					</g>
				</g>
				<g>
					<g>
						<polygon style="fill:#414042;" points="365.484,104.795 359.068,101.065 371.03,94.025 377.446,97.757 						"/>
					</g>
				</g>
				<g>
					<g>
						<polygon style="fill:#303030;" points="377.446,97.757 377.615,111.828 365.641,118.866 365.484,104.795 						"/>
					</g>
				</g>
			</g>
		</g>
		<g>
			<path style="fill:#414042;" d="M358.124,129.804c0.074-0.471,0.147-0.945,0.213-1.417c0.027-0.199,0.064-0.397,0.091-0.598
				c0.006-0.052,0.009-0.108,0.018-0.158c0.122-0.982,0.211-1.954,0.286-2.921c0.009-0.184,0.022-0.372,0.033-0.56
				c0.057-0.99,0.097-1.975,0.095-2.951c-0.03-10.596-3.777-18.057-9.811-21.567c-2.139-1.241-4.278-2.484-6.418-3.727
				c6.033,3.506,9.776,10.967,9.809,21.565c0.004,0.971-0.036,1.958-0.097,2.952c-0.011,0.186-0.021,0.372-0.031,0.558
				c-0.07,0.966-0.163,1.94-0.288,2.919c-0.033,0.249-0.068,0.502-0.102,0.754c-0.069,0.472-0.139,0.946-0.217,1.42
				c-0.048,0.285-0.101,0.562-0.151,0.844c-0.086,0.471-0.175,0.938-0.272,1.413c-0.043,0.222-0.093,0.439-0.14,0.662
				c-0.246,1.125-0.521,2.257-0.833,3.389c-0.051,0.189-0.105,0.381-0.16,0.57c-0.278,0.985-0.578,1.967-0.898,2.948
				c-0.018,0.048-0.031,0.1-0.047,0.147c-0.319,0.946-0.662,1.893-1.019,2.833c-0.087,0.224-0.17,0.445-0.259,0.667
				c-0.318,0.818-0.648,1.631-0.997,2.442c-0.042,0.09-0.076,0.182-0.115,0.276c-0.384,0.873-0.786,1.744-1.194,2.613
				c-0.107,0.217-0.213,0.43-0.316,0.645c-0.338,0.69-0.689,1.377-1.043,2.057c-0.104,0.197-0.208,0.396-0.309,0.59
				c-0.452,0.849-0.925,1.692-1.407,2.521c-0.081,0.144-0.166,0.282-0.254,0.428c-0.432,0.735-0.877,1.461-1.333,2.18
				c-0.13,0.206-0.258,0.416-0.39,0.617c-0.549,0.849-1.111,1.691-1.689,2.52c-0.088,0.127-0.185,0.253-0.271,0.382
				c-0.597,0.844-1.209,1.671-1.833,2.482c-0.104,0.133-0.197,0.269-0.301,0.396c-0.789,1.015-1.605,2.004-2.439,2.971
				c-0.121,0.143-0.243,0.294-0.372,0.435c-0.491,0.56-0.994,1.119-1.502,1.66c-0.05,0.058-0.103,0.115-0.154,0.17
				c-0.562,0.602-1.135,1.184-1.711,1.755c-0.125,0.12-0.25,0.238-0.37,0.356c-0.755,0.738-1.518,1.452-2.297,2.14
				c-0.069,0.066-0.146,0.131-0.213,0.195c-0.803,0.705-1.623,1.379-2.45,2.027c-0.161,0.127-0.321,0.253-0.483,0.378
				c-0.814,0.625-1.635,1.223-2.468,1.794c-0.149,0.1-0.307,0.199-0.453,0.299c-0.873,0.586-1.756,1.146-2.649,1.662
				c-0.716,0.412-1.426,0.788-2.131,1.142c-0.204,0.108-0.41,0.201-0.615,0.302c-0.531,0.26-1.065,0.501-1.587,0.728
				c-0.196,0.081-0.389,0.167-0.579,0.247c-0.496,0.199-0.983,0.385-1.47,0.562c-0.127,0.041-0.256,0.095-0.382,0.138
				c-0.608,0.206-1.211,0.394-1.806,0.559c-0.354,0.095-0.698,0.177-1.046,0.256c-0.169,0.039-0.333,0.088-0.497,0.125
				c-0.515,0.105-1.024,0.202-1.522,0.279c-0.767,0.12-1.511,0.185-2.25,0.228c-0.142,0.007-0.289,0.016-0.435,0.021
				c-0.664,0.026-1.313,0.023-1.951-0.014c-0.114-0.007-0.221-0.019-0.334-0.03c-0.512-0.04-1.02-0.099-1.514-0.178
				c-0.157-0.025-0.311-0.048-0.467-0.073c-0.569-0.107-1.131-0.231-1.68-0.39c-0.023-0.007-0.049-0.016-0.067-0.023
				c-0.521-0.154-1.02-0.337-1.518-0.534c-0.147-0.063-0.294-0.124-0.441-0.186c-0.412-0.181-0.82-0.384-1.213-0.593
				c-0.139-0.077-0.284-0.145-0.42-0.222c0.029,0.014,0.056,0.031,0.081,0.048c-0.025-0.018-0.054-0.034-0.081-0.048l6.418,3.729
				c0.065,0.038,0.122,0.072,0.183,0.105c0.075,0.039,0.151,0.068,0.22,0.107c0.405,0.219,0.815,0.423,1.238,0.606
				c0.077,0.034,0.154,0.078,0.232,0.115c0.061,0.025,0.134,0.041,0.197,0.068c0.498,0.2,0.999,0.383,1.518,0.537
				c0.022,0.003,0.04,0.013,0.061,0.02c0.002,0,0.004,0,0.01,0.004c0.549,0.157,1.107,0.28,1.678,0.385
				c0.067,0.013,0.128,0.035,0.2,0.047c0.086,0.016,0.182,0.02,0.273,0.03c0.49,0.079,0.991,0.139,1.504,0.178
				c0.086,0.002,0.164,0.025,0.255,0.029c0.026,0.004,0.057,0,0.09,0.004c0.634,0.036,1.285,0.039,1.941,0.013
				c0.065,0,0.126,0.007,0.194,0.004c0.082-0.004,0.172-0.02,0.258-0.031c0.734-0.039,1.479-0.104,2.242-0.22
				c0.002,0,0.002,0,0.004,0c0.502-0.079,1.01-0.176,1.522-0.283c0.147-0.034,0.296-0.075,0.446-0.111
				c0.331-0.077,0.657-0.15,0.994-0.242c0.032-0.011,0.067-0.02,0.099-0.031c0.595-0.161,1.195-0.348,1.797-0.554
				c0.142-0.046,0.286-0.107,0.428-0.157c0.473-0.17,0.943-0.345,1.425-0.543c0.067-0.027,0.132-0.048,0.208-0.079
				c0.128-0.052,0.262-0.124,0.391-0.179c0.518-0.222,1.036-0.458,1.56-0.713c0.215-0.105,0.425-0.206,0.639-0.313
				c0.703-0.354,1.408-0.727,2.122-1.139c0.893-0.514,1.772-1.074,2.646-1.662c0.153-0.098,0.305-0.197,0.453-0.299
				c0.832-0.568,1.655-1.166,2.469-1.789c0.162-0.129,0.324-0.258,0.488-0.387c0.824-0.648,1.642-1.316,2.439-2.02
				c0.079-0.067,0.158-0.14,0.229-0.204c0.772-0.683,1.533-1.393,2.279-2.122c0.079-0.079,0.16-0.149,0.241-0.222
				c0.049-0.05,0.091-0.104,0.143-0.149c0.577-0.573,1.148-1.157,1.707-1.751c0.049-0.05,0.093-0.104,0.142-0.158
				c0.514-0.549,1.02-1.112,1.522-1.681c0.052-0.061,0.109-0.118,0.163-0.179c0.064-0.077,0.125-0.159,0.189-0.238
				c0.846-0.974,1.67-1.975,2.474-3.005c0.019-0.031,0.042-0.054,0.062-0.081c0.058-0.072,0.108-0.149,0.167-0.219
				c0.639-0.84,1.269-1.691,1.881-2.556c0.062-0.087,0.127-0.168,0.189-0.256c0.031-0.04,0.055-0.085,0.081-0.124
				c0.586-0.838,1.155-1.689,1.711-2.552c0.052-0.077,0.1-0.15,0.152-0.229c0.079-0.123,0.146-0.242,0.223-0.36
				c0.45-0.717,0.892-1.44,1.325-2.173c0.065-0.105,0.132-0.206,0.193-0.311c0.019-0.04,0.043-0.081,0.068-0.124
				c0.479-0.831,0.948-1.666,1.4-2.514c0.036-0.068,0.072-0.131,0.108-0.192c0.072-0.135,0.135-0.27,0.205-0.404
				c0.354-0.678,0.702-1.365,1.04-2.049c0.066-0.138,0.142-0.27,0.206-0.406c0.037-0.081,0.073-0.167,0.111-0.246
				c0.416-0.865,0.813-1.735,1.194-2.611c0.01-0.019,0.02-0.041,0.031-0.063c0.03-0.073,0.057-0.15,0.09-0.224
				c0.345-0.804,0.676-1.614,0.991-2.425c0.048-0.125,0.101-0.247,0.155-0.367c0.036-0.102,0.067-0.204,0.105-0.308
				c0.358-0.942,0.697-1.886,1.012-2.83c0.008-0.011,0.015-0.025,0.018-0.036c0.014-0.039,0.021-0.079,0.036-0.118
				c0.326-0.983,0.619-1.963,0.903-2.946c0.032-0.121,0.075-0.242,0.111-0.365c0.016-0.066,0.031-0.131,0.047-0.199
				c0.312-1.132,0.586-2.26,0.827-3.39c0.021-0.088,0.048-0.179,0.068-0.27c0.03-0.135,0.048-0.264,0.078-0.394
				c0.095-0.471,0.182-0.94,0.269-1.406C358.025,130.37,358.077,130.088,358.124,129.804z"/>
		</g>
		<g>
			<path style="fill:#414042;" d="M328.609,89.164c0.689-0.333,1.372-0.644,2.049-0.936c0.24-0.104,0.487-0.212,0.723-0.308
				c0.652-0.271,1.3-0.511,1.938-0.742c0.147-0.052,0.293-0.111,0.443-0.161c0.785-0.269,1.563-0.509,2.333-0.72
				c0.448-0.122,0.886-0.229,1.329-0.334c0.214-0.044,0.429-0.109,0.644-0.155c0.659-0.142,1.311-0.262,1.955-0.364
				c0.01,0,0.015,0,0.03-0.006c0.601-0.091,1.2-0.16,1.789-0.211c0.191-0.02,0.381-0.031,0.573-0.045
				c0.415-0.031,0.83-0.055,1.245-0.066c0.181-0.005,0.365-0.007,0.542-0.012c0.428-0.004,0.851,0.007,1.27,0.023
				c0.15,0.004,0.3,0.007,0.448,0.016c0.16,0.009,0.314,0.027,0.474,0.039c0.664,0.05,1.319,0.129,1.959,0.229
				c0.202,0.033,0.395,0.061,0.593,0.099c0.734,0.134,1.459,0.295,2.161,0.498c0.023,0.007,0.045,0.016,0.07,0.023
				c0.674,0.197,1.325,0.433,1.969,0.693c0.185,0.073,0.366,0.154,0.545,0.234c0.542,0.236,1.075,0.496,1.593,0.776
				c0.17,0.095,0.35,0.174,0.52,0.274c-2.14-1.244-4.279-2.486-6.419-3.733c-0.079-0.044-0.16-0.088-0.238-0.134
				c-0.09-0.048-0.193-0.088-0.278-0.134c-0.519-0.283-1.051-0.542-1.596-0.781c-0.099-0.041-0.191-0.1-0.29-0.141
				c-0.085-0.036-0.174-0.06-0.255-0.09c-0.639-0.257-1.285-0.492-1.951-0.689c-0.025-0.007-0.05-0.018-0.078-0.025
				c-0.004-0.002-0.008-0.002-0.013-0.006c-0.7-0.2-1.424-0.36-2.159-0.498c-0.083-0.016-0.164-0.043-0.247-0.055
				c-0.115-0.018-0.229-0.025-0.344-0.043c-0.643-0.098-1.297-0.177-1.959-0.223c-0.104-0.011-0.201-0.032-0.305-0.039
				c-0.057-0.004-0.114-0.004-0.168-0.005c-0.154-0.008-0.308-0.011-0.46-0.017c-0.414-0.014-0.828-0.023-1.249-0.021
				c-0.19,0.003-0.378,0.007-0.569,0.012c-0.139,0.004-0.276,0-0.411,0.009c-0.265,0.011-0.532,0.04-0.797,0.061
				c-0.204,0.009-0.403,0.023-0.605,0.04c-0.555,0.051-1.117,0.118-1.68,0.202c-0.076,0.014-0.144,0.021-0.219,0.036
				c-0.612,0.095-1.239,0.21-1.866,0.344c-0.216,0.048-0.435,0.108-0.652,0.157c-0.4,0.094-0.797,0.183-1.199,0.294
				c-0.04,0.011-0.083,0.027-0.121,0.038c-0.77,0.21-1.55,0.448-2.334,0.718c-0.149,0.05-0.292,0.111-0.443,0.163
				c-0.64,0.231-1.286,0.471-1.937,0.741c-0.083,0.031-0.165,0.057-0.248,0.092c-0.161,0.066-0.321,0.15-0.476,0.217
				c-0.684,0.29-1.365,0.604-2.053,0.937c-0.262,0.129-0.527,0.254-0.792,0.389c-0.903,0.456-1.815,0.938-2.735,1.469
				c-0.693,0.401-1.383,0.824-2.068,1.256c-0.222,0.141-0.441,0.286-0.659,0.431c-0.466,0.303-0.931,0.609-1.397,0.926
				c-0.255,0.175-0.508,0.354-0.763,0.535c-0.427,0.302-0.853,0.61-1.275,0.923c-0.258,0.189-0.516,0.384-0.772,0.582
				c-0.427,0.326-0.852,0.659-1.276,1.001c-0.236,0.188-0.475,0.376-0.709,0.565c-0.483,0.396-0.966,0.802-1.437,1.216
				c-0.17,0.145-0.34,0.286-0.507,0.43c-0.645,0.567-1.288,1.143-1.921,1.737c-0.104,0.099-0.211,0.203-0.315,0.3
				c-0.444,0.419-0.884,0.839-1.318,1.265c-0.068,0.066-0.132,0.137-0.193,0.203c-0.739,0.728-1.469,1.472-2.182,2.236
				c-0.065,0.061-0.122,0.131-0.182,0.198c-0.667,0.714-1.325,1.443-1.973,2.185c-0.06,0.068-0.124,0.136-0.184,0.204
				c-0.073,0.09-0.15,0.187-0.226,0.274c-1.09,1.261-2.158,2.554-3.19,3.884c-0.029,0.034-0.057,0.072-0.086,0.104
				c-0.075,0.099-0.147,0.204-0.222,0.303c-0.826,1.072-1.626,2.161-2.414,3.272c-0.08,0.109-0.161,0.215-0.236,0.324
				c-0.039,0.05-0.072,0.104-0.104,0.156c-0.749,1.068-1.476,2.153-2.184,3.254c-0.065,0.107-0.144,0.211-0.21,0.315
				c-0.106,0.167-0.2,0.333-0.304,0.498c-0.558,0.886-1.106,1.78-1.642,2.688c-0.094,0.158-0.195,0.308-0.285,0.466
				c-0.035,0.059-0.067,0.123-0.101,0.186c-0.609,1.046-1.2,2.106-1.775,3.177c-0.047,0.092-0.101,0.181-0.147,0.269
				c-0.101,0.189-0.192,0.383-0.287,0.569c-0.442,0.838-0.87,1.682-1.286,2.531c-0.093,0.191-0.198,0.377-0.294,0.571
				c-0.049,0.12-0.101,0.236-0.158,0.353c-0.52,1.093-1.024,2.188-1.507,3.289c-0.014,0.038-0.029,0.07-0.045,0.106
				c-0.052,0.122-0.101,0.247-0.152,0.369c-0.423,0.991-0.832,1.984-1.219,2.98c-0.069,0.174-0.148,0.348-0.214,0.523
				c-0.057,0.147-0.107,0.296-0.16,0.444c-0.445,1.18-0.875,2.364-1.272,3.553c-0.01,0.023-0.018,0.05-0.028,0.076
				c-0.031,0.083-0.048,0.163-0.077,0.246c-0.4,1.219-0.771,2.445-1.117,3.666c-0.045,0.164-0.105,0.324-0.153,0.488
				c-0.039,0.154-0.077,0.306-0.116,0.459c-0.095,0.349-0.187,0.697-0.272,1.041c-0.14,0.525-0.268,1.046-0.394,1.569
				c-0.086,0.358-0.161,0.717-0.246,1.076c-0.059,0.269-0.126,0.539-0.188,0.809c-0.036,0.191-0.065,0.382-0.104,0.573
				c-0.119,0.555-0.222,1.112-0.323,1.666c-0.074,0.4-0.147,0.799-0.211,1.2c-0.101,0.582-0.186,1.158-0.265,1.738
				c-0.036,0.269-0.088,0.544-0.122,0.814c-0.014,0.111-0.022,0.224-0.036,0.34c-0.038,0.272-0.06,0.541-0.097,0.815
				c-0.06,0.553-0.116,1.101-0.168,1.649c-0.023,0.283-0.045,0.566-0.068,0.849c-0.039,0.57-0.074,1.137-0.102,1.705
				c-0.012,0.234-0.026,0.474-0.038,0.709c-0.027,0.801-0.046,1.598-0.042,2.386c0.036,13.611,4.84,23.187,12.59,27.689l6.416,3.729
				c-7.746-4.502-12.553-14.077-12.589-27.689c0-0.786,0.014-1.583,0.047-2.384c0.007-0.236,0.02-0.474,0.035-0.715
				c0.025-0.562,0.062-1.131,0.103-1.698c0.021-0.283,0.045-0.569,0.068-0.853c0.048-0.548,0.106-1.094,0.17-1.642
				c0.027-0.276,0.058-0.548,0.094-0.824c0.047-0.38,0.103-0.763,0.158-1.142c0.082-0.585,0.166-1.169,0.265-1.753
				c0.063-0.394,0.138-0.794,0.207-1.187c0.105-0.559,0.212-1.12,0.326-1.678c0.094-0.457,0.188-0.914,0.292-1.37
				c0.08-0.362,0.166-0.727,0.25-1.093c0.121-0.515,0.252-1.031,0.386-1.551c0.093-0.349,0.183-0.702,0.276-1.054
				c0.086-0.312,0.175-0.624,0.267-0.935c0.348-1.228,0.717-2.457,1.123-3.688c0.036-0.1,0.065-0.203,0.097-0.305
				c0.401-1.189,0.83-2.373,1.275-3.555c0.126-0.327,0.247-0.648,0.376-0.969c0.391-1.005,0.798-1.998,1.228-2.992
				c0.063-0.152,0.123-0.303,0.188-0.456c0.488-1.107,0.988-2.207,1.512-3.301c0.147-0.306,0.294-0.606,0.442-0.908
				c0.42-0.858,0.851-1.706,1.295-2.552c0.143-0.274,0.283-0.549,0.43-0.82c0.573-1.074,1.163-2.14,1.78-3.193
				c0.122-0.211,0.252-0.421,0.376-0.634c0.538-0.907,1.085-1.802,1.644-2.694c0.174-0.272,0.347-0.552,0.524-0.822
				c0.706-1.098,1.429-2.181,2.17-3.243c0.115-0.17,0.237-0.33,0.359-0.498c0.78-1.107,1.583-2.194,2.405-3.265
				c0.104-0.13,0.207-0.268,0.304-0.399c1.034-1.33,2.103-2.625,3.198-3.892c0.132-0.154,0.267-0.317,0.404-0.471
				c0.655-0.748,1.319-1.486,1.992-2.208c0.055-0.059,0.108-0.122,0.163-0.178c0.716-0.763,1.446-1.506,2.179-2.235
				c0.499-0.495,1.001-0.978,1.507-1.458c0.109-0.1,0.214-0.209,0.325-0.315c0.635-0.589,1.272-1.164,1.915-1.732
				c0.168-0.143,0.34-0.285,0.509-0.434c0.477-0.408,0.956-0.813,1.44-1.212c0.238-0.192,0.471-0.382,0.711-0.569
				c0.424-0.338,0.845-0.675,1.275-0.997c0.258-0.199,0.512-0.389,0.771-0.582c0.421-0.313,0.852-0.622,1.276-0.923
				c0.255-0.181,0.509-0.358,0.763-0.534c0.463-0.316,0.928-0.624,1.395-0.929c0.214-0.143,0.438-0.288,0.658-0.428
				c0.689-0.433,1.376-0.856,2.07-1.258c0.917-0.53,1.83-1.012,2.729-1.468C328.083,89.418,328.344,89.295,328.609,89.164z"/>
		</g>
		<g>
			<g>
				<g>
					<path style="fill:#6B6C70;" d="M325.081,91.021c23.853-13.768,43.237-2.722,43.313,24.683
						c0.079,27.394-19.181,60.754-43.026,74.524c-23.843,13.764-43.228,2.717-43.307-24.681
						C281.983,138.144,301.241,104.788,325.081,91.021z M325.333,179.268c18.582-10.729,33.585-36.717,33.526-58.07
						c-0.062-21.332-15.167-29.949-33.746-19.219c-18.577,10.724-33.578,36.721-33.515,58.057
						C291.655,181.387,306.76,189.992,325.333,179.268L325.333,179.268z"/>
				</g>
			</g>
		</g>
	</g>
</g>
<g>
	<path style="fill:#FFFFFF;" d="M59.657,139.423c0-0.632,0-0.632,1.07-1.249l0,14.575c0,2.278-0.261,5.065-2.9,6.588
		c-1.521,0.878-2.354,0.618-2.354-0.014c0-0.357,0.143-0.714,0.238-0.933c0.452,0.316,1.141,0.357,2.021-0.151
		c1.831-1.057,1.925-3.061,1.925-5.284L59.657,139.423z"/>
	<path style="fill:#FFFFFF;" d="M66.933,139.807c2.425-1.4,3.685-0.618,3.685,5.009c0,4.887-1.426,7.961-3.946,9.416
		c-2.282,1.317-3.708,1.262-3.708-4.969C62.963,144.184,64.485,141.22,66.933,139.807z M66.695,153.119
		c1.688-0.975,2.782-3.362,2.782-7.699c0-4.887-0.951-5.435-2.591-4.488c-1.688,0.975-2.782,3.088-2.782,7.81
		C64.104,153.572,65.032,154.08,66.695,153.119z"/>
	<path style="fill:#FFFFFF;" d="M72.925,130.802c0-0.631,0.214-0.755,1.069-1.249l0,7.357c0.785-1.194,1.712-2.169,3.114-2.979
		c1.926-1.084,3.186-0.521,3.186,3.376c0,8.098-2.71,10.623-4.635,11.735c-1.236,0.713-2.14,0.96-2.734,0.755L72.925,130.802z
		 M73.995,148.329c0.262,0.123,0.833,0.068,1.783-0.48c1.284-0.741,3.352-2.759,3.352-9.457c0-3.431-0.785-4.021-2.473-3.046
		c-0.998,0.576-1.902,1.454-2.663,2.744V148.329z"/>
	<path style="fill:#FFFFFF;" d="M93.418,119.63c0-0.303-0.023-0.316,1.07-0.947l0,18.885c0,0.33-0.024,0.344-1.07,0.947v-9.882
		l-5.539,3.197v9.553c0,0.33,0,0.33-1.07,0.947l-0.001-18.885c0-0.33,0.024-0.344,1.07-0.947l0.001,8.125l5.539-3.198L93.418,119.63
		z"/>
	<path style="fill:#FFFFFF;" d="M104.498,131.46c-1.093,1.263-2.472,2.36-3.613,3.019c-2.781,1.606-3.494,0.618-3.494-3.034v-8.619
		c0-0.329-0.024-0.316,1.07-0.946v9.14c0,2.855,0.499,3.445,2.543,2.266c0.57-0.33,1.64-1.085,2.424-2.059v-11.886
		c0-0.329,0.072-0.371,1.07-0.947V131.46z"/>
	<path style="fill:#FFFFFF;" d="M107.375,117.418c1.165-1.221,2.52-2.415,3.876-3.198c2.591-1.496,3.232-0.604,3.232,1.949v9.854
		c0,0.33-0.023,0.344-1.093,0.961v-9.882c0-2.059-0.356-2.786-2.163-1.743c-0.761,0.439-1.973,1.359-2.781,2.292v11.858
		c0,0.329-0.023,0.343-1.07,0.947V117.418z"/>
	<path style="fill:#FFFFFF;" d="M116.387,112.655c0-0.988,0.024-1.139,0.261-1.276l1.569-0.905l-0.001-4.393
		c0-0.549,0.167-0.646,1.07-1.167l0.001,4.941l3.019-1.743c0,0.988,0,1.126-0.237,1.263l-2.782,1.606v8.591
		c0,1.811,0.024,3.143,1.188,2.471c0.69-0.398,1.046-0.769,1.569-1.372c0.071,0.178,0.095,0.384,0.095,0.631
		c0,0.604-0.927,1.441-1.878,1.99c-1.949,1.126-2.044-0.658-2.044-3.156v-8.537L116.387,112.655z"/>
	<path style="fill:#FFFFFF;" d="M124.85,101.757c0.452-0.261,0.618-0.027,0.618,0.632c0,0.769-0.19,1.317-0.689,1.605
		c-0.404,0.233-0.618,0.055-0.618-0.659C124.161,102.594,124.374,102.032,124.85,101.757z M125.35,119.75c0,0.33,0,0.33-1.069,0.947
		v-13.093c0-0.631,0.214-0.755,1.069-1.248V119.75z"/>
	<path style="fill:#FFFFFF;" d="M128.345,105.312c1.165-1.221,2.52-2.415,3.875-3.198c2.591-1.496,3.232-0.604,3.232,1.949v9.854
		c0,0.33-0.023,0.343-1.093,0.961v-9.882c0-2.059-0.356-2.786-2.164-1.743c-0.761,0.439-1.973,1.359-2.781,2.292v11.858
		c0,0.33-0.024,0.343-1.07,0.947V105.312z"/>
	<path style="fill:#FFFFFF;" d="M145.819,94.428c0.047,0.055,0.119,0.179,0.119,0.481c0,0.356-0.167,0.617-0.5,0.81
		c-0.404,0.233-0.975,0.508-1.474,0.714c0.927,0.014,1.498,0.864,1.498,2.648c0,2.8-1.094,5.792-3.851,7.384
		c-0.571,0.33-1.046,0.522-1.451,0.618c-0.57,0.823-1.141,1.894-1.141,2.388c0,0.549,1.593-0.014,3.685-0.946
		c1.712-0.714,3.186-1.043,3.186,1.125c0,2.004-1.474,4.858-4.612,6.67c-3.138,1.812-3.756,0.714-3.756-0.741
		c0-1.345,0.998-3.294,2.021-4.707c-0.998,0.274-1.64,0.178-1.64-0.453c0-0.714,0.737-2.127,1.521-3.294
		c-1.189-0.138-1.521-1.592-1.521-3.349c0-3.349,1.735-5.943,3.898-7.192c0.238-0.137,0.689-0.343,1.094-0.466L145.819,94.428z
		 M144.82,110.403c0-1.592-1.117-1.249-2.686-0.508c-0.595,0.261-1.165,0.508-1.665,0.687c-0.927,1.249-1.877,3.088-1.877,4.186
		c0,1.07,0.451,1.66,2.757,0.329C143.656,113.766,144.82,111.721,144.82,110.403z M138.996,103.143c0,2.004,0.356,3.582,2.686,2.237
		c1.878-1.084,2.71-3.596,2.71-5.874c0-2.333-0.999-2.827-2.639-1.88C140.28,98.477,138.996,100.425,138.996,103.143z"/>
</g>
</svg>
